<?xml version="1.0" standalone="no"?>
<!DOCTYPE svg PUBLIC "-//W3C//DTD SVG 20010904//EN"
 "http://www.w3.org/TR/2001/REC-SVG-20010904/DTD/svg10.dtd">
<svg version="1.0" xmlns="http://www.w3.org/2000/svg"
 width="502.000000pt" height="337.000000pt" viewBox="0 0 502.000000 337.000000"
 preserveAspectRatio="xMidYMid meet">

<g transform="translate(0.000000,337.000000) scale(0.100000,-0.100000)"
fill="#000000" stroke="none">
<path d="M674 2854 c-67 -33 -73 -126 -10 -176 20 -16 97 -18 1178 -18 636 0
1159 -3 1161 -7 3 -5 2 -432 -1 -951 l-5 -942 -528 0 -528 0 -25 55 c-35 77
-106 149 -185 188 -61 30 -73 32 -166 32 -93 0 -105 -2 -166 -32 -80 -39 -150
-111 -187 -191 -24 -50 -27 -69 -27 -157 0 -88 3 -107 27 -157 37 -80 107
-152 187 -191 61 -30 73 -32 166 -32 93 0 105 2 166 32 79 39 150 111 185 188
l25 55 605 0 604 0 32 29 33 29 3 746 2 746 343 -2 342 -3 253 -315 252 -315
0 -352 0 -353 -109 0 -110 0 -25 55 c-35 77 -106 149 -185 188 -61 30 -73 32
-166 32 -88 0 -107 -3 -157 -27 -80 -37 -152 -107 -191 -187 -30 -61 -32 -73
-32 -166 0 -93 2 -105 32 -166 39 -80 111 -150 191 -187 50 -24 69 -27 157
-27 88 0 107 3 157 27 79 37 152 108 189 184 l32 64 167 0 c93 0 181 5 198 11
63 22 62 11 62 518 l0 461 -300 375 c-186 232 -310 379 -326 385 -15 6 -184
10 -400 10 l-374 0 0 230 c0 177 -3 239 -14 265 -29 69 57 65 -1288 65 -1071
0 -1217 -2 -1244 -16z m953 -2035 c119 -45 150 -203 57 -291 -89 -83 -232 -53
-280 59 -60 139 82 286 223 232z m2250 0 c38 -14 83 -57 99 -96 49 -113 -38
-243 -161 -243 -94 0 -175 80 -175 174 0 121 124 208 237 165z"/>
<path d="M964 2300 c-66 -27 -85 -120 -35 -171 l29 -29 677 0 677 0 29 29 c41
41 41 98 0 143 l-29 33 -664 2 c-365 1 -673 -2 -684 -7z"/>
<path d="M693 1739 c-74 -22 -97 -111 -44 -171 l29 -33 649 -3 c441 -2 660 0
685 8 104 30 104 171 0 200 -47 13 -1274 12 -1319 -1z"/>
</g>
</svg>
