<?xml version="1.0" standalone="no"?>
<!DOCTYPE svg PUBLIC "-//W3C//DTD SVG 20010904//EN"
 "http://www.w3.org/TR/2001/REC-SVG-20010904/DTD/svg10.dtd">
<svg version="1.0" xmlns="http://www.w3.org/2000/svg"
 width="248.000000pt" height="241.000000pt" viewBox="0 0 248.000000 241.000000"
 preserveAspectRatio="xMidYMid meet">

<g transform="translate(0.000000,241.000000) scale(0.100000,-0.100000)"
fill="#000000" stroke="none">
<path d="M1770 2354 c-14 -2 -52 -9 -85 -15 -383 -66 -674 -377 -675 -720 0
-147 68 -288 183 -379 l57 -45 0 -253 0 -253 -46 57 c-43 52 -46 59 -38 93 5
20 8 79 9 131 0 86 -3 101 -32 162 -82 174 -260 266 -493 255 -125 -6 -196
-24 -310 -78 -148 -70 -310 -212 -310 -271 0 -29 28 -58 56 -58 37 0 123 -49
171 -97 26 -27 84 -89 128 -138 136 -152 243 -202 412 -193 104 5 169 32 249
103 l52 45 25 -34 c41 -53 82 -127 105 -189 20 -51 22 -78 22 -242 0 -172 1
-186 20 -205 24 -24 49 -25 76 -6 18 14 19 33 22 566 l2 552 23 -7 c44 -14
194 -17 250 -5 94 19 174 66 258 149 83 84 127 153 165 262 23 66 24 73 9 95
-17 26 -65 33 -83 12 -5 -7 -22 -44 -37 -83 -97 -245 -296 -371 -512 -325 -74
16 -73 15 -58 105 31 173 120 333 221 396 27 16 34 27 34 53 0 68 -54 75 -129
16 -101 -80 -184 -223 -223 -385 -12 -50 -23 -92 -26 -95 -8 -10 -82 84 -107
136 -53 112 -43 242 30 390 94 191 267 319 501 370 146 31 381 21 552 -25 l40
-11 -50 -52 c-62 -64 -138 -176 -138 -204 0 -39 54 -68 86 -46 6 4 24 27 39
52 44 70 92 124 166 185 57 46 69 61 69 85 0 36 -21 51 -115 80 -138 42 -257
61 -400 65 -77 2 -151 2 -165 -1z m-990 -1084 c164 -31 272 -137 287 -283 9
-90 3 -95 -64 -45 -115 85 -298 159 -357 144 -28 -7 -42 -41 -31 -75 4 -15 28
-27 91 -46 107 -33 199 -83 283 -155 22 -19 23 -21 6 -46 -21 -32 -98 -81
-150 -95 -63 -18 -155 -6 -227 29 -76 37 -88 47 -205 183 -82 95 -182 179
-212 179 -24 0 -8 21 51 65 164 123 360 177 528 145z"/>
</g>
</svg>
