<svg xmlns="http://www.w3.org/2000/svg" xmlns:xlink="http://www.w3.org/1999/xlink" width="206px" height="206px" viewBox="0 0 206 206" version="1.1">
    <g id="Page-1" stroke="none" stroke-width="1" fill="none" fill-rule="evenodd">
        <g id="Group-2" transform="translate(3.000000, 3.000000)">      
            <g id="007-credit-card" transform="translate(45.000000, 51.000000)" fill="#92AFCC" fill-rule="nonzero">
                <path d="M87.0726722,77.3660429 C86.0951473,76.7196306 84.7532312,76.9520762 84.07592,77.8841173 C83.4194989,78.787616 82.675641,79.6660632 81.8639444,80.495434 C81.3201572,81.0517017 80.5719921,81.7223442 79.7579265,82.3827196 C78.852117,83.117839 78.7427135,84.4137437 79.5134915,85.2776117 C79.9394761,85.7548233 80.5452873,86 81.1547597,86 C81.6481524,86 82.1441294,85.8392183 82.5496547,85.5102626 C83.4993979,84.7394139 84.3520132,83.9739041 85.0140337,83.2960747 C85.9663613,82.3231708 86.8420202,81.2892808 87.6164594,80.2231523 C88.2937706,79.2911112 88.0504123,78.0118391 87.0726722,77.3660429 Z" id="Path"/>
                <path d="M77.8152804,87.1374458 C77.3580911,86.1493359 76.1981634,85.7240535 75.223372,86.187477 L75.1623745,86.2153417 C74.1776442,86.655841 73.731758,87.8226011 74.166536,88.821185 C74.4880885,89.5602911 75.2017403,90 75.9502756,90 C76.2131692,90 76.4803501,89.945654 76.7360331,89.8312308 C76.7835839,89.8100853 76.830745,89.7883469 76.8781009,89.7660156 C77.8525025,89.3023944 78.2720799,88.1259509 77.8152804,87.1374458 Z" id="Path"/>
                <path d="M103.581556,0 L6.4184445,0 C2.87911547,0 0,2.88456497 0,6.42963354 L0,66.744869 C0,70.2897224 2.87911547,73.1740721 6.4184445,73.1740721 L51.6614421,73.1740721 C53.5793485,81.3028507 57.9163908,87.0599284 61.7068717,90.7483321 C67.2395171,96.1326525 73.5816922,99 76.0328398,99 C78.4837725,99 84.8259476,96.1328677 90.3588079,90.7485473 C94.1492888,87.0599284 98.4865459,81.3028507 100.404237,73.1742873 L103.581556,73.1742873 C107.12067,73.1742873 110,70.2899376 110,66.7450842 L110,6.42963354 C110,2.88456497 107.12067,0 103.581556,0 Z M97.1091853,64.3540138 C97.1091853,75.6934124 91.8841955,83.2150613 87.5005322,87.5282425 C82.3006791,92.6446166 76.9667637,94.6347362 76.0328398,94.6952124 C75.098701,94.6347362 69.7645708,92.6448318 64.5647176,87.5282425 C60.181484,83.2150613 54.9562794,75.6934124 54.9562794,64.3540138 L54.9562794,53.7553951 C62.3533352,51.6124709 69.274728,48.6796971 76.0334843,44.8255757 C82.6399167,48.581773 89.8715432,51.6449688 97.1091853,53.7541038 L97.1091853,64.3540138 Z M105.703133,66.744869 C105.703133,67.916515 104.751163,68.8697149 103.581556,68.8697149 L101.151463,68.8697149 C101.316033,67.4275401 101.406267,65.9235977 101.406267,64.3540138 L101.406267,52.1236133 C101.406267,51.1521199 100.756581,50.3013637 99.8209378,50.046761 C92.019332,47.9244977 84.1687419,44.61746 77.1180134,40.4833402 C76.4477023,40.0903524 75.6179773,40.0907828 74.9472364,40.4837706 C67.6967037,44.7351842 60.270644,47.8629454 52.2447417,50.046761 C51.309099,50.3015789 50.6594128,51.1523351 50.6594128,52.1236133 L50.6594128,64.3540138 C50.6594128,65.9235977 50.7494321,67.4275401 50.914217,68.8697149 L6.4184445,68.8697149 C5.24862256,68.8697149 4.29686661,67.9162998 4.29686661,66.744869 L4.29686661,30.1300698 L105.703133,30.1300698 L105.703133,66.744869 Z M105.703133,25.8259279 L4.29686661,25.8259279 L4.29686661,17.217644 L105.703133,17.217644 L105.703133,25.8259279 Z M105.703133,12.9130716 L4.29686661,12.9130716 L4.29686661,6.42963354 C4.29686661,5.2577723 5.24862256,4.30435718 6.4184445,4.30435718 L103.581556,4.30435718 C104.751163,4.30435718 105.703133,5.2577723 105.703133,6.42963354 L105.703133,12.9130716 Z" id="Shape"/>
                <path d="M25.2794125,45 C23.9771276,45 22.6912591,45.2573502 21.50108,45.7479833 C20.3383334,45.2664281 19.060457,45 17.7203715,45 C12.3606778,45 8,49.2615836 8,54.4997889 C8,59.7379942 12.3604618,64 17.7203715,64 C19.060457,64 20.3383334,63.7335719 21.500864,63.2520167 C22.6912591,63.7426498 23.9771276,64 25.2794125,64 C30.6393222,64 35,59.7379942 35,54.4997889 C35,49.2615836 30.6393222,45 25.2794125,45 Z M17.7203715,59.7776839 C14.7425479,59.7776839 12.3200691,57.4102313 12.3200691,54.4997889 C12.3200691,51.5895575 14.7425479,49.2223161 17.7203715,49.2223161 C20.6977632,49.2223161 23.1202419,51.5895575 23.1202419,54.4997889 C23.1202419,57.4100202 20.6977632,59.7776839 17.7203715,59.7776839 Z M25.814885,59.7519278 C26.8409015,58.246461 27.440311,56.4403653 27.440311,54.5 C27.440311,52.5596347 26.8409015,50.7539612 25.815101,49.2484944 C28.5421447,49.5119669 30.6797149,51.7666837 30.6797149,54.5 C30.6797149,57.2333163 28.5421447,59.4882442 25.814885,59.7519278 Z" id="Shape"/>
                <path d="M21.9002478,36 L11.0997522,36 C9.94005907,36 9,36.8954 9,38 C9,39.1044 9.94005907,40 11.0997522,40 L21.9002478,40 C23.0599409,40 24,39.1042 24,38 C24,36.8954 23.0599409,36 21.9002478,36 Z" id="Path"/>
                <path d="M28.0463026,36 L27.9536974,36 C26.8746703,36 26,36.8954 26,38 C26,39.1044 26.8746703,40 27.9536974,40 L28.0463026,40 C29.1251343,40 30,39.1042 30,38 C30,36.8954 29.1251343,36 28.0463026,36 Z" id="Path"/>
                <path d="M87.3668755,59.6180231 C86.5231058,58.7942386 85.1544392,58.7938165 84.3098048,59.617812 L72.748885,70.9040604 L66.6907356,64.9889797 C65.8463174,64.1654062 64.4774346,64.1649841 63.6332326,64.9889797 C62.7890306,65.8133973 62.7888144,67.1498573 63.6332326,67.9740639 L71.2202416,75.3815812 C71.6424507,75.7937901 72.1956679,76 72.748885,76 C73.3021022,76 73.8555355,75.7937901 74.2773123,75.3815812 L87.3666593,62.6031073 C88.2110775,61.7791118 88.2110775,60.4426518 87.3668755,59.6180231 Z" id="Path"/>
            </g>
        </g>
    </g>
</svg>