<?xml version="1.0" standalone="no"?>
<!DOCTYPE svg PUBLIC "-//W3C//DTD SVG 20010904//EN"
 "http://www.w3.org/TR/2001/REC-SVG-20010904/DTD/svg10.dtd">
<svg version="1.0" xmlns="http://www.w3.org/2000/svg"
 width="475.000000pt" height="478.000000pt" viewBox="0 0 475.000000 478.000000"
 preserveAspectRatio="xMidYMid meet">

<g transform="translate(0.000000,478.000000) scale(0.100000,-0.100000)"
fill="#000000" stroke="none">
<path d="M813 4205 c-159 -35 -296 -169 -332 -326 -14 -59 -14 -1059 0 -1118
40 -173 185 -304 372 -333 l77 -13 0 -145 c0 -119 4 -152 19 -185 31 -70 113
-125 186 -125 69 0 99 21 267 188 l168 166 0 -445 c0 -277 4 -468 11 -505 26
-141 130 -280 260 -349 111 -58 168 -64 599 -65 l375 0 250 -251 c138 -138
266 -259 285 -268 53 -28 108 -34 163 -17 67 20 111 57 141 118 25 50 26 58
26 233 l0 181 90 12 c50 7 113 21 141 33 147 57 263 189 304 344 23 88 23
1262 0 1350 -42 161 -172 298 -340 359 -19 7 -226 12 -590 16 l-560 5 -5 410
c-5 387 -6 413 -26 461 -62 151 -190 252 -347 275 -34 5 -379 8 -767 8 -555 0
-718 -3 -767 -14z m1575 -189 c53 -23 124 -101 140 -154 8 -27 12 -155 12
-421 l0 -381 -273 0 c-222 0 -284 -3 -328 -16 -197 -59 -339 -225 -363 -425
l-7 -56 -213 -212 c-157 -157 -217 -210 -229 -205 -15 5 -17 28 -17 199 l0
193 -26 31 c-25 30 -28 31 -113 31 -48 0 -110 7 -137 15 -60 18 -127 72 -157
129 -22 41 -22 46 -25 554 -2 330 1 526 8 551 21 81 95 155 177 177 38 10 204
13 778 11 688 -2 732 -3 773 -21z m1456 -1156 c72 -27 139 -88 173 -158 l28
-57 0 -635 c0 -628 0 -636 -21 -681 -64 -137 -184 -199 -391 -199 -133 0 -133
0 -133 -294 0 -218 -1 -225 -21 -240 -12 -8 -29 -12 -38 -9 -9 3 -138 127
-286 274 l-271 269 -394 0 c-397 0 -495 7 -554 37 -66 33 -115 83 -148 151
l-33 67 0 625 c0 580 1 628 18 665 42 94 108 158 195 190 30 11 199 14 929 14
874 1 893 1 947 -19z"/>
<path d="M2275 2121 c-114 -78 -64 -241 74 -241 44 0 55 4 85 34 58 59 57 133
-4 191 -39 38 -112 45 -155 16z"/>
<path d="M2833 2120 c-110 -67 -64 -240 63 -240 83 0 134 50 134 133 0 99
-111 160 -197 107z"/>
<path d="M3394 2121 c-45 -28 -64 -59 -64 -109 0 -84 48 -132 133 -132 50 0
88 24 112 70 59 115 -72 238 -181 171z"/>
</g>
</svg>
