<?xml version="1.0" standalone="no"?>
<!DOCTYPE svg PUBLIC "-//W3C//DTD SVG 20010904//EN"
 "http://www.w3.org/TR/2001/REC-SVG-20010904/DTD/svg10.dtd">
<svg version="1.0" xmlns="http://www.w3.org/2000/svg"
 width="451.000000pt" height="412.000000pt" viewBox="0 0 451.000000 412.000000"
 preserveAspectRatio="xMidYMid meet">

<g transform="translate(0.000000,412.000000) scale(0.100000,-0.100000)"
fill="#000000" stroke="none">
<path d="M2134 3844 c-61 -30 -55 -20 -588 -946 l-108 -188 -454 0 c-502 0
-506 0 -544 -62 -19 -31 -20 -46 -18 -236 l3 -204 37 -34 c22 -19 48 -34 62
-34 31 0 29 11 56 -395 86 -1289 83 -1258 107 -1316 19 -50 99 -122 151 -137
57 -17 2947 -17 3004 0 52 15 132 87 151 137 24 58 21 27 107 1316 27 406 25
395 56 395 14 0 40 15 62 34 l37 34 3 204 c2 190 1 205 -18 236 -38 62 -42 62
-544 62 l-454 0 -307 533 c-169 292 -318 544 -332 559 -57 60 -143 74 -220 37
l-43 -21 -43 21 c-51 25 -119 27 -163 5z m126 -124 c11 -11 20 -30 20 -42 0
-17 -545 -979 -647 -1140 -20 -33 -28 -38 -62 -38 -21 0 -43 6 -49 13 -35 41
-33 44 303 627 180 311 333 573 342 582 21 24 68 23 93 -2z m253 2 c9 -9 162
-271 342 -582 336 -583 338 -586 303 -627 -6 -7 -28 -13 -49 -13 -34 0 -42 5
-62 38 -102 161 -647 1123 -647 1140 0 52 78 82 113 44z m-71 -380 c53 -92
153 -265 223 -385 69 -120 129 -225 132 -232 4 -13 -57 -15 -456 -15 -254 0
-461 2 -461 5 0 6 30 58 166 295 50 85 135 233 190 327 54 95 101 173 104 173
3 0 48 -75 102 -168z m-1062 -774 c0 -121 115 -213 232 -186 62 14 94 42 145
129 l46 79 538 0 538 0 41 -75 c46 -84 85 -119 147 -133 118 -27 233 64 233
186 l0 22 420 0 420 0 0 -165 0 -165 -140 0 c-127 0 -142 -2 -160 -20 -24 -24
-26 -57 -3 -82 13 -14 31 -18 94 -18 l78 0 -5 -47 c-2 -27 -13 -181 -24 -343
-11 -162 -34 -495 -50 -740 -16 -245 -32 -465 -36 -488 -4 -31 -16 -55 -39
-80 l-33 -37 -1482 0 -1482 0 -33 37 c-23 25 -35 49 -39 80 -4 23 -20 243 -36
488 -16 245 -39 578 -50 740 -11 162 -22 316 -24 343 l-5 47 1486 0 c1369 0
1488 1 1505 17 25 23 23 68 -4 87 -20 14 -186 16 -1570 16 l-1548 0 0 165 0
165 420 0 420 0 0 -22z"/>
<path d="M1258 1930 c-44 -13 -87 -49 -108 -90 -19 -38 -20 -61 -20 -570 0
-509 1 -532 20 -569 68 -133 264 -132 329 1 20 43 21 57 21 430 0 360 -1 386
-18 401 -26 24 -68 21 -86 -5 -14 -19 -16 -74 -16 -395 0 -360 -1 -374 -20
-393 -24 -24 -57 -26 -88 -4 l-22 15 0 513 c0 548 -1 539 50 551 34 8 80 -27
80 -61 0 -13 9 -33 20 -44 41 -41 100 -13 100 48 0 116 -128 207 -242 172z"/>
<path d="M1766 1926 c-47 -18 -94 -61 -112 -103 -11 -26 -14 -133 -14 -555 0
-511 0 -523 21 -566 72 -148 297 -128 344 31 12 41 15 118 15 403 0 202 -4
364 -10 378 -11 30 -51 43 -85 28 l-24 -11 -3 -387 -3 -386 -24 -19 c-30 -25
-66 -24 -91 1 -20 20 -20 31 -18 532 l3 511 26 20 c43 31 79 13 103 -51 19
-54 43 -71 84 -58 65 21 36 157 -46 211 -47 31 -115 40 -166 21z"/>
<path d="M2277 1925 c-50 -17 -85 -50 -108 -100 -17 -37 -19 -75 -19 -555 0
-477 2 -518 19 -555 68 -151 274 -151 342 0 17 36 19 74 19 415 0 415 -1 420
-60 420 -61 0 -60 5 -60 -404 0 -363 -1 -374 -21 -400 -28 -35 -70 -35 -98 0
-21 26 -21 36 -21 526 l0 499 25 24 c13 14 34 25 45 25 28 0 70 -44 70 -73 0
-51 63 -74 100 -37 55 55 -18 192 -118 220 -48 13 -68 12 -115 -5z"/>
<path d="M2798 1930 c-45 -13 -87 -49 -111 -93 -22 -42 -22 -47 -25 -537 -4
-543 -1 -578 49 -635 87 -98 252 -78 308 37 20 43 21 57 21 430 0 360 -1 386
-18 401 -26 24 -68 21 -86 -5 -14 -19 -16 -74 -16 -395 0 -360 -1 -374 -20
-393 -25 -25 -61 -26 -91 -1 l-24 19 -3 491 c-3 539 -2 551 54 565 37 10 76
-20 85 -64 17 -84 119 -77 119 7 0 115 -129 207 -242 173z"/>
<path d="M3295 1922 c-47 -23 -89 -65 -104 -105 -7 -19 -11 -206 -11 -549 0
-511 0 -523 21 -566 65 -133 261 -134 329 -1 19 36 20 60 20 433 0 388 0 395
-20 406 -33 18 -73 8 -87 -20 -10 -19 -13 -118 -13 -397 l0 -372 -22 -15 c-31
-22 -64 -20 -88 4 -20 20 -20 31 -18 532 l3 511 27 20 c24 18 30 18 57 7 24
-9 33 -22 42 -54 12 -45 32 -66 64 -66 54 0 72 78 35 150 -41 81 -155 120
-235 82z"/>
</g>
</svg>
