<?xml version="1.0" encoding="iso-8859-1"?>
<!DOCTYPE svg PUBLIC "-//W3C//DTD SVG 1.1//EN" "http://www.w3.org/Graphics/SVG/1.1/DTD/svg11.dtd">
<svg fill="#000000" version="1.1" id="Capa_1" xmlns="http://www.w3.org/2000/svg" xmlns:xlink="http://www.w3.org/1999/xlink" 
	 width="800px" height="800px" viewBox="0 0 384.25 384.25"
	 xml:space="preserve">
<g>
	<g>
		<path d="M192.125,0C122.955,0,66.674,56.279,66.674,125.449c0,63.29,100.927,232.376,112.427,251.451
			c2.757,4.557,7.694,7.35,13.024,7.35s10.267-2.793,13.021-7.35c11.504-19.074,112.43-188.161,112.43-251.451
			C317.576,56.28,261.295,0,192.125,0z M192.125,339.1c-35.029-60.594-95.039-172.887-95.039-213.649
			c0-52.404,42.635-95.035,95.039-95.035c52.404,0,95.039,42.631,95.039,95.035C287.164,166.198,227.154,278.498,192.125,339.1z"/>
		<path d="M192.125,53.214c-39.835,0-72.236,32.403-72.236,72.235c0,39.836,32.401,72.236,72.236,72.236
			c39.832,0,72.236-32.4,72.236-72.236C264.361,85.618,231.957,53.214,192.125,53.214z M192.125,167.274
			c-23.062,0-41.824-18.762-41.824-41.824c0-23.06,18.762-41.824,41.824-41.824c23.06,0,41.824,18.765,41.824,41.824
			C233.949,148.512,215.186,167.274,192.125,167.274z"/>
	</g>
</g>
</svg>