<svg xmlns="http://www.w3.org/2000/svg" version="1.1" xmlns:xlink="http://www.w3.org/1999/xlink" xmlns:svgjs="http://svgjs.dev/svgjs" width="1000" height="275" viewBox="0 0 1000 275"><g transform="matrix(1,0,0,1,-0.6060606060606233,-0.12499715542941203)"><svg viewBox="0 0 396 109" data-background-color="#f0cf90" preserveAspectRatio="xMidYMid meet" height="275" width="1000" xmlns="http://www.w3.org/2000/svg" xmlns:xlink="http://www.w3.org/1999/xlink"><g id="tight-bounds" transform="matrix(1,0,0,1,0.2400000000000091,0.049544327061113336)"><svg viewBox="0 0 395.52 108.90090926863532" height="108.90090926863532" width="395.52"><g><svg viewBox="0 0 582.8056574875197 160.46739994765306" height="108.90090926863532" width="395.52"><g><rect width="4.8408563456087235" height="139.33493483153663" x="169.77240233141694" y="10.566232558058218" fill="#000000" opacity="1" stroke-width="0" stroke="transparent" fill-opacity="1" class="rect-o-0" data-fill-palette-color="primary" rx="1%" id="o-0" data-palette-color="#000000"></rect></g><g transform="matrix(1,0,0,1,187.2856574875197,22.17747712735293)"><svg viewBox="0 0 395.52 116.1124456929472" height="116.1124456929472" width="395.52"><g><svg viewBox="0 0 395.52 116.1124456929472" height="116.1124456929472" width="395.52"><g><svg viewBox="0 0 395.52 53.679318568994894" height="53.679318568994894" width="395.52"><g transform="matrix(1,0,0,1,0,0)"><svg width="395.52" viewBox="4.050000190734863 -35.20000076293945 264.1300048828125 35.85000228881836" height="53.679318568994894" data-palette-color="#000000"><path d="M27.6-9.95Q27.6-4.6 23.8-2.3 20 0 14.15 0L14.15 0 4.05 0 4.05-34.5 13.5-34.5Q19-34.5 22.55-32.48 26.1-30.45 26.1-25.75L26.1-25.75Q26.1-22.75 24.28-20.83 22.45-18.9 19.7-18.3L19.7-18.3Q23.1-17.7 25.35-15.78 27.6-13.85 27.6-9.95L27.6-9.95ZM20.2-25.3Q20.2-27.85 18.63-29 17.05-30.15 14-30.15L14-30.15 9.85-30.15 9.85-20.2 14.35-20.2Q17.3-20.2 18.75-21.43 20.2-22.65 20.2-25.3L20.2-25.3ZM21.55-9.95Q21.55-13.2 19.75-14.53 17.95-15.85 14.75-15.85L14.75-15.85 9.85-15.85 9.85-4.5 14.55-4.5Q21.55-4.5 21.55-9.95L21.55-9.95ZM56.95-34.5L56.95-11.3Q56.95-7.8 55.52-5.1 54.1-2.4 51.4-0.88 48.7 0.65 44.95 0.65L44.95 0.65Q39.3 0.65 36.17-2.6 33.05-5.85 33.05-11.3L33.05-11.3 33.05-34.5 38.85-34.5 38.85-12.4Q38.85-8.1 40.32-6.03 41.8-3.95 44.95-3.95L44.95-3.95Q48.15-3.95 49.62-6.03 51.1-8.1 51.1-12.4L51.1-12.4 51.1-34.5 56.95-34.5ZM77.84-29.8L77.84 0 72.05 0 72.05-29.8 61.65-29.8 61.65-34.5 88.4-34.5 87.8-29.8 77.84-29.8ZM107.84-29.8L107.84 0 102.04 0 102.04-29.8 91.64-29.8 91.64-34.5 118.39-34.5 117.79-29.8 107.84-29.8ZM131.44-30.1L131.44-19.7 143.94-19.7 143.94-15.35 131.44-15.35 131.44-4.4 146.69-4.4 146.69 0 125.64 0 125.64-34.5 146.39-34.5 145.74-30.1 131.44-30.1ZM177.29-24.5Q177.29-20.9 175.14-18.5 172.99-16.1 169.44-15L169.44-15 179.24 0 172.49 0 163.79-14.2 160.04-14.2 160.04 0 154.24 0 154.24-34.5 163.84-34.5Q177.29-34.5 177.29-24.5L177.29-24.5ZM171.24-24.5Q171.24-27.5 169.51-28.85 167.79-30.2 164.19-30.2L164.19-30.2 160.04-30.2 160.04-18.45 164.34-18.45Q167.74-18.45 169.49-19.9 171.24-21.35 171.24-24.5L171.24-24.5ZM197.89-35.2Q201.29-35.2 203.69-34.35 206.09-33.5 208.29-31.7L208.29-31.7 205.29-28.1Q202.14-30.65 198.14-30.65L198.14-30.65Q193.94-30.65 191.29-27.43 188.64-24.2 188.64-17.3L188.64-17.3Q188.64-10.5 191.24-7.28 193.84-4.05 198.19-4.05L198.19-4.05Q200.69-4.05 202.46-4.83 204.24-5.6 205.99-7L205.99-7 208.79-3.45Q204.59 0.65 197.99 0.65L197.99 0.65Q193.54 0.65 190.04-1.43 186.54-3.5 184.56-7.55 182.59-11.6 182.59-17.3L182.59-17.3Q182.59-22.9 184.61-26.95 186.64-31 190.14-33.1 193.64-35.2 197.89-35.2L197.89-35.2ZM236.93-34.5L236.93-11.3Q236.93-7.8 235.51-5.1 234.08-2.4 231.38-0.88 228.68 0.65 224.93 0.65L224.93 0.65Q219.28 0.65 216.16-2.6 213.03-5.85 213.03-11.3L213.03-11.3 213.03-34.5 218.83-34.5 218.83-12.4Q218.83-8.1 220.31-6.03 221.78-3.95 224.93-3.95L224.93-3.95Q228.13-3.95 229.61-6.03 231.08-8.1 231.08-12.4L231.08-12.4 231.08-34.5 236.93-34.5ZM268.18-23.65Q268.18-17.85 264.58-15.08 260.98-12.3 254.73-12.3L254.73-12.3 250.53-12.3 250.53 0 244.78 0 244.78-34.5 254.33-34.5Q260.98-34.5 264.58-31.78 268.18-29.05 268.18-23.65L268.18-23.65ZM262.13-23.65Q262.13-30.15 254.73-30.15L254.73-30.15 250.53-30.15 250.53-16.7 254.78-16.7Q258.28-16.7 260.21-18.3 262.13-19.9 262.13-23.65L262.13-23.65Z" opacity="1" transform="matrix(1,0,0,1,0,0)" fill="#000000" class="undefined-text-0" data-fill-palette-color="primary" id="text-0"></path></svg></g></svg></g><g transform="matrix(1,0,0,1,0,66.35171737948893)"><svg viewBox="0 0 161.60823690792867 49.760728313458266" height="49.760728313458266" width="161.60823690792867"><g transform="matrix(1,0,0,1,0,0)"><svg width="161.60823690792867" viewBox="1.9000000953674316 -41.5 176.99000549316406 54.5" height="49.760728313458266" data-palette-color="#000000"><path d="M19.9 0L1.9 0 1.9-1.9Q3.85-1.95 5.03-2.2 6.2-2.45 6.83-3.05 7.45-3.65 7.68-4.75 7.9-5.85 7.9-7.6L7.9-7.6 7.9-30.9Q7.9-32.65 7.73-33.73 7.55-34.8 7.03-35.43 6.5-36.05 5.5-36.27 4.5-36.5 2.9-36.6L2.9-36.6 2.9-38.5 17.85-38.5Q24.6-38.5 28.35-36.1 32.1-33.7 32.1-29.35L32.1-29.35Q32.1-26.05 30.03-23.95 27.95-21.85 23.45-20.5L23.45-20.5 23.45-20.3Q25-20.15 26.15-19.95 27.3-19.75 28.2-19.48 29.1-19.2 29.88-18.8 30.65-18.4 31.4-17.9L31.4-17.9Q35.85-14.75 35.85-10L35.85-10Q35.85-7.35 34.38-5.08 32.9-2.8 30.25-1.5L30.25-1.5Q29.4-1.05 28.5-0.78 27.6-0.5 26.4-0.33 25.2-0.15 23.63-0.08 22.05 0 19.9 0L19.9 0ZM20.05-2.15L20.05-2.15Q29.1-2.15 29.1-9.9L29.1-9.9Q29.1-15.55 24.45-17.8L24.45-17.8Q23.65-18.15 22.9-18.4 22.15-18.65 21.15-18.78 20.15-18.9 18.78-18.95 17.4-19 15.4-19L15.4-19 13.15-19 13.15-7.85Q13.15-4.8 14.75-3.48 16.35-2.15 20.05-2.15ZM13.15-21.5L15.95-21.5Q17.5-21.5 18.55-21.55 19.6-21.6 20.35-21.73 21.1-21.85 21.68-22.08 22.25-22.3 22.85-22.7L22.85-22.7Q24.45-23.7 25.13-25.1 25.8-26.5 25.8-28.75L25.8-28.75Q25.8-32.7 23.88-34.43 21.95-36.15 17.85-36.15L17.85-36.15 14-36.15Q13.15-36.15 13.15-35.3L13.15-35.3 13.15-21.5ZM55.8-10.85L55.8-14.8Q52.95-13.7 50.97-12.65 49-11.6 47.8-10.55 46.6-9.5 46.07-8.45 45.55-7.4 45.55-6.3L45.55-6.3Q45.55-4.65 46.65-3.6 47.75-2.55 49.55-2.55L49.55-2.55Q50.85-2.55 51.97-3.2 53.1-3.85 53.95-4.98 54.8-6.1 55.3-7.63 55.8-9.15 55.8-10.85L55.8-10.85ZM48.6-13.8L55.8-16.95 55.8-19Q55.8-25.1 50.6-25.1L50.6-25.1Q49.75-25.1 49.15-24.95 48.55-24.8 48.15-24.45 47.75-24.1 47.42-23.45 47.1-22.8 46.8-21.85L46.8-21.85Q46.25-20.4 45.72-19.93 45.2-19.45 44.2-19.45L44.2-19.45Q41.7-19.45 41.7-21.95L41.7-21.95Q41.7-24.35 44.25-25.68 46.8-27 51.5-27L51.5-27Q56.5-27 58.6-25.23 60.7-23.45 60.7-19.2L60.7-19.2 60.7-8Q60.7-2.3 62.95-2.3L62.95-2.3Q63.65-2.3 64.3-2.48 64.95-2.65 65.4-3.4L65.4-3.4 66.1-2.2Q65.5-1.05 63.9-0.28 62.3 0.5 60.55 0.5L60.55 0.5Q58.35 0.5 57.27-0.9 56.2-2.3 56.2-4.85L56.2-4.85 55.95-4.85Q54.65-2.4 52.35-0.98 50.05 0.45 47.25 0.45L47.25 0.45Q44.1 0.45 42.3-1.15 40.5-2.75 40.5-5.45L40.5-5.45Q40.5-6.65 40.92-7.75 41.35-8.85 42.3-9.85 43.25-10.85 44.8-11.83 46.35-12.8 48.6-13.8L48.6-13.8ZM83.45 0L83.45-1.75Q85.1-1.75 85.72-1.9 86.35-2.05 86.35-2.3L86.35-2.3Q86.3-2.7 85.55-3.75 84.8-4.8 83.6-6.25L83.6-6.25 78.3-12.65 76.45-10.9 76.45-7.95Q76.45-6 76.62-4.83 76.8-3.65 77.27-2.98 77.75-2.3 78.67-2.05 79.6-1.8 81.1-1.75L81.1-1.75 81.1 0 66.9 0 66.9-1.75Q68.4-1.8 69.32-2.05 70.25-2.3 70.77-2.95 71.3-3.6 71.5-4.7 71.7-5.8 71.7-7.6L71.7-7.6 71.7-28.55Q71.7-32.35 71.62-34.3 71.55-36.25 71.1-36.95L71.1-36.95Q70.65-37.65 69.6-37.77 68.55-37.9 66.8-37.9L66.8-37.9 66.8-39.6 76.45-41.5 76.45-14.05 81.1-18.6Q83.35-20.85 84.45-21.93 85.55-23 85.55-23.55L85.55-23.55Q85.55-24.1 84.5-24.43 83.45-24.75 81.5-24.75L81.5-24.75 81.5-26.5 94.5-26.5 94.5-24.75Q93.55-24.75 92.85-24.65 92.15-24.55 91.52-24.25 90.9-23.95 90.2-23.43 89.5-22.9 88.6-22.1L88.6-22.1 81.4-15.7 91.3-4.5Q92-3.65 92.57-3.13 93.15-2.6 93.72-2.3 94.3-2 94.97-1.88 95.65-1.75 96.6-1.75L96.6-1.75 96.6 0 83.45 0ZM119.54-6.05L121.09-4.65Q116.84 0.5 110.54 0.5L110.54 0.5Q107.59 0.5 105.19-0.48 102.79-1.45 101.07-3.23 99.34-5 98.39-7.48 97.44-9.95 97.44-12.95L97.44-12.95Q97.44-16 98.44-18.6 99.44-21.2 101.27-23.05 103.09-24.9 105.62-25.95 108.14-27 111.14-27L111.14-27Q115.99-27 118.64-24.38 121.29-21.75 121.29-16.85L121.29-16.85Q121.29-16.15 121.02-16 120.74-15.85 119.74-15.85L119.74-15.85 103.29-15.85Q103.19-15.45 103.14-14.88 103.09-14.3 103.09-13.6L103.09-13.6Q103.09-11 103.72-8.88 104.34-6.75 105.52-5.25 106.69-3.75 108.32-2.93 109.94-2.1 111.94-2.1L111.94-2.1Q114.04-2.1 115.84-3.03 117.64-3.95 119.54-6.05L119.54-6.05ZM103.64-18.15L112.84-18.15Q113.84-18.15 114.44-18.2 115.04-18.25 115.34-18.4 115.64-18.55 115.74-18.82 115.84-19.1 115.84-19.55L115.84-19.55Q115.84-21.85 114.37-23.23 112.89-24.6 110.34-24.6L110.34-24.6Q104.94-24.6 103.64-18.15L103.64-18.15ZM134.74-9.65L134.74-7.95Q134.74-5.9 134.84-4.7 134.94-3.5 135.37-2.88 135.79-2.25 136.59-2.05 137.39-1.85 138.84-1.75L138.84-1.75 138.84 0 125.54 0 125.54-1.75Q126.99-1.8 127.84-2.02 128.69-2.25 129.14-2.85 129.59-3.45 129.72-4.58 129.84-5.7 129.84-7.6L129.84-7.6 129.84-13.45Q129.84-16.85 129.77-18.75 129.69-20.65 129.27-21.55 128.84-22.45 127.94-22.63 127.04-22.8 125.44-22.8L125.44-22.8 125.44-24.55 134.19-26.45 134.89-20.25 135.09-20.25Q135.74-21.75 136.72-23 137.69-24.25 138.84-25.13 139.99-26 141.24-26.5 142.49-27 143.79-27L143.79-27Q145.39-27 146.32-26.23 147.24-25.45 147.24-24.15L147.24-24.15Q147.24-22.95 146.49-22.28 145.74-21.6 144.34-21.6L144.34-21.6Q143.54-21.6 142.99-21.8 142.44-22 142.02-22.23 141.59-22.45 141.22-22.65 140.84-22.85 140.39-22.85L140.39-22.85Q139.04-22.85 137.69-21.13 136.34-19.4 135.59-16.75L135.59-16.75Q135.19-15.3 134.97-13.48 134.74-11.65 134.74-9.65L134.74-9.65ZM172.44-16.4L161.54 7.85Q159.24 13 154.39 13L154.39 13Q151.24 13 151.24 10.65L151.24 10.65Q151.24 9.4 152.11 8.83 152.99 8.25 155.34 7.85L155.34 7.85Q156.39 7.7 157.14 7.43 157.89 7.15 158.49 6.73 159.09 6.3 159.56 5.65 160.04 5 160.49 4.05L160.49 4.05 162.24 0.55 152.64-20.3Q151.99-21.7 151.51-22.53 151.04-23.35 150.51-23.83 149.99-24.3 149.34-24.48 148.69-24.65 147.69-24.75L147.69-24.75 147.69-26.5 160.94-26.5 160.94-24.75Q157.59-24.75 157.59-23.1L157.59-23.1Q157.59-22.45 157.99-21.05 158.39-19.65 158.99-18.2L158.99-18.2 164.49-4.9 164.74-4.9 169.29-16.15Q169.94-17.8 170.36-18.85 170.79-19.9 171.01-20.58 171.24-21.25 171.31-21.7 171.39-22.15 171.39-22.55L171.39-22.55Q171.39-23.85 170.66-24.3 169.94-24.75 167.89-24.75L167.89-24.75 167.89-26.5 178.89-26.5 178.89-24.75Q177.94-24.75 177.29-24.5 176.64-24.25 175.96-23.38 175.29-22.5 174.46-20.85 173.64-19.2 172.44-16.4L172.44-16.4Z" opacity="1" transform="matrix(1,0,0,1,0,0)" fill="#000000" class="undefined-text-1" data-fill-palette-color="secondary" id="text-1"></path></svg></g></svg></g></svg></g></svg></g><g><svg viewBox="0 0 157.1000035209229 160.46739994765306" height="160.46739994765306" width="157.1000035209229"><g><svg xmlns="http://www.w3.org/2000/svg" xmlns:xlink="http://www.w3.org/1999/xlink" version="1.1" x="0" y="0" viewBox="1.0489978790283203 0 97.9020004272461 100.00050354003906" enable-background="new 0 0 100 100" xml:space="preserve" width="157.1000035209229" height="160.46739994765306" class="icon-icon-0" data-fill-palette-color="accent" id="icon-0"><path d="M84.907 57.924c-2.915 0-5.288 2.378-5.288 5.298 0 6.748-5.488 12.241-12.251 12.241-6.743 0-12.231-5.493-12.231-12.241 0-2.92-2.383-5.298-5.298-5.298-2.92 0-5.298 2.378-5.298 5.298 0 6.748-5.498 12.241-12.241 12.241-6.759 0-12.247-5.493-12.247-12.241 0-2.92-2.383-5.298-5.298-5.298-2.583 0-4.653 1.909-5.107 4.38 2.446 13.066 8.193 28.867 12.979 33.662 5.513 5.513 49.239 5.244 54.493 0 4.624-4.624 10.464-21.157 12.823-34.063C89.341 59.638 87.363 57.924 84.907 57.924z" fill="#000000" data-fill-palette-color="accent"></path><path d="M6.215 54.472c2.212-2.159 5.215-3.498 8.54-3.498 6.743 0 12.241 5.49 12.241 12.248 0 2.915 2.379 5.293 5.304 5.293 2.915 0 5.293-2.378 5.293-5.293 0-6.758 5.493-12.248 12.246-12.248 6.748 0 12.236 5.49 12.236 12.248 0 2.915 2.378 5.293 5.293 5.293 2.93 0 5.303-2.378 5.303-5.293 0-6.758 5.498-12.248 12.236-12.248 3.398 0 6.485 1.397 8.702 3.644 3.252-3.028 5.342-7.267 5.342-12.069 0-8.923-7.026-16.146-15.841-16.592-1.147-8.086-8.027-14.326-16.436-14.326-0.283 0-0.552 0.068-0.835 0.083C63.721 4.944 57.471 0 50 0c-7.549 0-13.853 5.049-15.908 11.934-0.986-0.178-1.987-0.303-3.022-0.303-8.482 0-15.411 6.36-16.461 14.558-7.72 1.46-13.56 8.216-13.56 16.36C1.049 47.264 3.065 51.449 6.215 54.472z" fill="#000000" data-fill-palette-color="accent"></path></svg></g></svg></g></svg></g><defs></defs></svg><rect width="395.52" height="108.90090926863532" fill="none" stroke="none" visibility="hidden"></rect></g></svg></g></svg>