<svg xmlns="http://www.w3.org/2000/svg" version="1.1" xmlns:xlink="http://www.w3.org/1999/xlink" xmlns:svgjs="http://svgjs.dev/svgjs" width="1000" height="368" viewBox="0 0 1000 368"><g transform="matrix(1,0,0,1,-0.6060606060606233,0.4108855877441897)"><svg viewBox="0 0 396 146" data-background-color="#7c4e29" preserveAspectRatio="xMidYMid meet" height="368" width="1000" xmlns="http://www.w3.org/2000/svg" xmlns:xlink="http://www.w3.org/1999/xlink"><g id="tight-bounds" transform="matrix(1,0,0,1,0.2400000000000091,-0.16301439078981161)"><svg viewBox="0 0 395.52 146.32602878157962" height="146.32602878157962" width="395.52"><g><svg viewBox="0 0 697.8234126640062 258.16577863555193" height="146.32602878157962" width="395.52"><g transform="matrix(1,0,0,1,302.30341266400626,6.512080205442885)"><svg viewBox="0 0 395.52 245.14161822466616" height="245.14161822466616" width="395.52"><g><svg viewBox="0 0 395.52 245.14161822466616" height="245.14161822466616" width="395.52"><g><svg viewBox="0 0 395.52 245.14161822466616" height="245.14161822466616" width="395.52"><g transform="matrix(1,0,0,1,0,0)"><svg width="395.52" viewBox="5.349999904632568 -38.599998474121094 63.650001525878906 39.44999694824219" height="245.14161822466616" data-palette-color="#ffffff"><path d="M25.2-19.25Q32-17.05 32-10.25L32-10.25Q32-5.05 28.88-2.53 25.75 0 18.45 0L18.45 0 5.35 0 5.35-37.9 18.45-37.9Q25.1-37.9 27.8-35.4 30.5-32.9 30.5-27.75L30.5-27.75Q30.5-24.7 29.23-22.58 27.95-20.45 25.2-19.25L25.2-19.25ZM10.2-33.8L10.2-21.05 18.45-21.05Q25.5-21.05 25.55-27.4L25.55-27.4Q25.55-30.9 24-32.35 22.45-33.8 18.45-33.8L18.45-33.8 10.2-33.8ZM27.05-10.55Q27.05-13.9 24.88-15.43 22.7-16.95 18.45-16.95L18.45-16.95 10.2-16.95 10.2-4.1 18.45-4.1Q23.15-4.1 25.1-5.65 27.05-7.2 27.05-10.55L27.05-10.55ZM56.8 0.85Q50.7 0.85 46.55-1.6 42.4-4.05 40.32-8.5 38.25-12.95 38.25-18.9L38.25-18.9Q38.25-24.5 40.3-28.95 42.35-33.4 46.52-36 50.7-38.6 56.8-38.6L56.8-38.6Q59.45-38.6 61.52-38.18 63.6-37.75 66-36.75L66-36.75 66-32.3Q61.75-34.35 56.9-34.35L56.9-34.35Q52.7-34.35 49.6-32.38 46.5-30.4 44.85-26.88 43.2-23.35 43.25-18.9L43.25-18.9Q43.25-14.3 44.85-10.8 46.45-7.3 49.5-5.35 52.55-3.4 56.8-3.4L56.8-3.4Q59.45-3.4 62.02-4.15 64.6-4.9 67.45-6.3L67.45-6.3 69-2.2Q66.1-0.7 62.9 0.08 59.7 0.85 56.8 0.85L56.8 0.85Z" opacity="1" transform="matrix(1,0,0,1,0,0)" fill="#000000" class="undefined-text-0" data-fill-palette-color="primary" id="text-0"></path></svg></g></svg></g></svg></g></svg></g><g><svg viewBox="0 0 244.43135999999998 258.16577863555193" height="258.16577863555193" width="244.43135999999998"><g><svg version="1.0" xmlns="http://www.w3.org/2000/svg" xmlns:xlink="http://www.w3.org/1999/xlink" x="0" y="0" viewBox="0 0 94.68000030517578 100" enable-background="new 0 0 94.68 100" xml:space="preserve" width="244.43135999999998" height="258.16577863555193" class="icon-icon-0" data-fill-palette-color="accent" id="icon-0"><path d="M68.502 0c-3.284 0.262-6.492 0.594-9.654 0.971C38.964 3.335 21.698 7.916 8.656 14.01 5.521 15.475 2.619 17.024 0 18.66v58.244L94.68 100V40.886L68.502 0zM86.021 89.009L8.656 70.126V52.7l77.365 19.222V89.009zM86.021 63.003L8.699 43.78 8.656 26.353l77.365 19.248V63.003z" fill="#000000" data-fill-palette-color="accent"></path></svg></g></svg></g></svg></g><defs></defs></svg><rect width="395.52" height="146.32602878157962" fill="none" stroke="none" visibility="hidden"></rect></g></svg></g></svg>