<svg xmlns="http://www.w3.org/2000/svg" version="1.1" xmlns:xlink="http://www.w3.org/1999/xlink" xmlns:svgjs="http://svgjs.dev/svgjs" width="2000" height="1500" viewBox="0 0 2000 1500"><rect width="2000" height="1500" fill="#000000"></rect><g transform="matrix(0.75,0,0,0.75,249.09090914934927,603.5505445924579)"><svg viewBox="0 0 396 78" data-background-color="#f9e17e" preserveAspectRatio="xMidYMid meet" height="393" width="2000" xmlns="http://www.w3.org/2000/svg" xmlns:xlink="http://www.w3.org/1999/xlink"><g id="tight-bounds" transform="matrix(1,0,0,1,0.24000001542822247,-0.24492783108300387)"><svg viewBox="0 0 395.52 78.489855662166" height="78.489855662166" width="395.52"><g><svg viewBox="0 0 395.52 78.489855662166" height="78.489855662166" width="395.52"><g transform="matrix(1,0,0,1,0,48.50987965605846)"><svg viewBox="0 0 395.52 29.979976006107535" height="29.979976006107535" width="395.52"><g><svg viewBox="0 0 395.52 29.979976006107535" height="29.979976006107535" width="395.52"><g><svg viewBox="0 0 395.52 29.979976006107535" height="29.979976006107535" width="395.52"><g transform="matrix(1,0,0,1,0,0)"><svg width="395.52" viewBox="0.9000000357627869 -34.349998474121094 458.4100036621094 34.75" height="29.979976006107535" data-palette-color="#f5ba41"><path d="M0.9-33.7L23.15-33.7 23.15-30.15 14.05-30.15 14.05 0 10 0 10-30.15 0.9-30.15 0.9-33.7ZM48.35-18.9L48.35-33.7 52.4-33.7 52.4 0 48.35 0 48.35-15.25 32-15.25 32 0 27.95 0 27.95-33.7 32-33.7 32-18.9 48.35-18.9ZM64.15-15.05L64.15-3.55 78.9-3.55 78.9 0 60.1 0 60.1-33.7 78.65-33.7 78.65-30.15 64.15-30.15 64.15-18.6 76.95-18.6 76.95-15.05 64.15-15.05ZM101.39-15.3L101.39-3.45 109.04-3.45Q112.24-3.45 113.97-4.93 115.69-6.4 115.69-9.25 115.69-12.1 113.77-13.7 111.84-15.3 108.29-15.3L108.29-15.3 101.39-15.3ZM107.49-30.25L101.39-30.25 101.39-18.75 106.79-18.75Q110.84-18.75 112.79-20.45 114.74-22.15 114.74-24.85L114.74-24.85Q114.74-27.2 112.92-28.73 111.09-30.25 107.49-30.25L107.49-30.25ZM97.34 0L97.34-33.7 107.49-33.7Q112.69-33.7 115.82-31.3 118.94-28.9 118.94-24.85L118.94-24.85Q118.94-21.95 117.32-19.83 115.69-17.7 113.14-17.15L113.14-17.15Q115.94-16.7 117.92-14.63 119.89-12.55 119.89-9L119.89-9Q119.89-4.95 117.22-2.48 114.54 0 109.64 0L109.64 0 97.34 0ZM132.94-14.2L132.29-12.3 144.24-12.3 143.59-14.25 138.34-30.45Q137.74-28.3 132.94-14.2L132.94-14.2ZM152.69 0L148.34 0 145.39-8.85 131.14-8.85 128.14 0 123.79 0 135.54-33.7 141.14-33.7 152.69 0ZM162.34 0L158.28 0 158.28-33.7 162.34-33.7 162.34 0ZM180.99-33.7L168.13-16.65 181.69 0 176.44 0 163.13-16.65 175.99-33.7 180.99-33.7ZM190.98-15.05L190.98-3.55 205.73-3.55 205.73 0 186.93 0 186.93-33.7 205.48-33.7 205.48-30.15 190.98-30.15 190.98-18.6 203.78-18.6 203.78-15.05 190.98-15.05ZM220.68-30.2L216.03-30.2 216.03-16.75 221.13-16.75Q224.58-16.75 226.41-18.63 228.23-20.5 228.23-23.45L228.23-23.45Q228.23-30.2 220.68-30.2L220.68-30.2ZM225.53-13.95L234.38 0 229.53 0 221.28-13.3 220.88-13.3 216.03-13.3 216.03 0 211.98 0 211.98-33.7 220.43-33.7Q226.28-33.7 229.31-30.95 232.33-28.2 232.33-23.35L232.33-23.35Q232.23-19.85 230.48-17.4 228.73-14.95 225.53-13.95L225.53-13.95ZM241.28-22.2L237.73-22.2 237.73-34.05 241.28-34.05 241.28-22.2ZM264.98-32.45L264.98-32.45 264.98-28.2Q261.93-30.2 257.68-30.2L257.68-30.2Q254.63-30.2 252.83-28.78 251.03-27.35 251.03-25.05L251.03-25.05Q251.03-23.85 251.5-22.9 251.98-21.95 253.18-21.13 254.38-20.3 255.23-19.88 256.08-19.45 257.88-18.65L257.88-18.65Q259.58-17.9 260.48-17.48 261.38-17.05 262.8-16.13 264.23-15.2 264.95-14.33 265.68-13.45 266.25-12.03 266.83-10.6 266.83-8.95L266.83-8.95Q266.83-4.5 263.78-2.08 260.73 0.35 255.93 0.35L255.93 0.35Q250.63 0.35 246.93-1.8L246.93-1.8 246.93-6.15Q250.58-3.4 255.83-3.4L255.83-3.4Q258.98-3.4 260.78-4.8 262.58-6.2 262.58-8.85L262.58-8.85Q262.58-9.95 262.15-10.83 261.73-11.7 260.75-12.43 259.78-13.15 258.9-13.63 258.03-14.1 256.53-14.8L256.53-14.8Q256.23-14.95 255.63-15.2L255.63-15.2Q253.48-16.15 252.35-16.75 251.23-17.35 249.7-18.53 248.18-19.7 247.48-21.25 246.78-22.8 246.78-24.85L246.78-24.85Q246.78-29.15 249.85-31.58 252.93-34 257.58-34L257.58-34Q261.93-34 264.98-32.45ZM309.77-32.35L309.77-32.35 309.77-28.2Q307.57-29.35 305.82-29.85 304.07-30.35 301.22-30.35L301.22-30.35Q295.77-30.35 292.14-26.65 288.52-22.95 288.52-17L288.52-17Q288.52-10.8 292.12-7.1 295.72-3.4 301.67-3.4L301.67-3.4Q306.47-3.4 309.87-5.95L309.87-5.95 309.87-1.7Q306.77 0.4 301.37 0.4L301.37 0.4Q293.77 0.4 289.02-4.28 284.27-8.95 284.27-17L284.27-17Q284.27-24.6 289.1-29.38 293.92-34.15 301.22-34.15L301.22-34.15Q306.47-34.15 309.77-32.35ZM314.37-17L314.37-17Q314.37-24.95 318.44-29.65 322.52-34.35 329.47-34.35L329.47-34.35Q336.57-34.35 340.59-29.68 344.62-25 344.62-17L344.62-17Q344.62-9.05 340.54-4.33 336.47 0.4 329.52 0.4L329.52 0.4Q322.67 0.4 318.52-4.35 314.37-9.1 314.37-17ZM318.62-17L318.62-17Q318.62-10.75 321.59-7.1 324.57-3.45 329.52-3.45L329.52-3.45Q334.67-3.45 337.49-7.05 340.32-10.65 340.32-17 340.32-23.35 337.47-26.95 334.62-30.55 329.47-30.55L329.47-30.55Q324.37-30.55 321.49-26.93 318.62-23.3 318.62-17ZM359.52-30.2L354.87-30.2 354.87-16.75 359.97-16.75Q363.42-16.75 365.24-18.63 367.07-20.5 367.07-23.45L367.07-23.45Q367.07-30.2 359.52-30.2L359.52-30.2ZM364.37-13.95L373.22 0 368.37 0 360.12-13.3 359.72-13.3 354.87-13.3 354.87 0 350.82 0 350.82-33.7 359.27-33.7Q365.12-33.7 368.14-30.95 371.17-28.2 371.17-23.35L371.17-23.35Q371.07-19.85 369.32-17.4 367.57-14.95 364.37-13.95L364.37-13.95ZM382.26 0L378.21 0 378.21-33.7 383.31-33.7 391.76-19.5 400.31-4.9Q400.11-9.75 400.11-19.45L400.11-19.45 400.11-33.7 404.16-33.7 404.16 0 399.06 0 390.61-14.1Q388.06-18.35 385.91-22.03 383.76-25.7 382.86-27.3L382.86-27.3 382.01-28.85Q382.26-23.65 382.26-14.2L382.26-14.2 382.26 0ZM415.91-15.05L415.91-3.55 430.66-3.55 430.66 0 411.86 0 411.86-33.7 430.41-33.7 430.41-30.15 415.91-30.15 415.91-18.6 428.71-18.6 428.71-15.05 415.91-15.05ZM445.61-30.2L440.96-30.2 440.96-16.75 446.06-16.75Q449.51-16.75 451.33-18.63 453.16-20.5 453.16-23.45L453.16-23.45Q453.16-30.2 445.61-30.2L445.61-30.2ZM450.46-13.95L459.31 0 454.46 0 446.21-13.3 445.81-13.3 440.96-13.3 440.96 0 436.91 0 436.91-33.7 445.36-33.7Q451.21-33.7 454.23-30.95 457.26-28.2 457.26-23.35L457.26-23.35Q457.16-19.85 455.41-17.4 453.66-14.95 450.46-13.95L450.46-13.95Z" opacity="1" transform="matrix(1,0,0,1,0,0)" fill="#ffffff" class="undefined-text-0" data-fill-palette-color="primary" id="text-0"></path></svg></g></svg></g></svg></g></svg></g><g transform="matrix(1,0,0,1,170.14593641051468,0)"><svg viewBox="0 0 55.2281271789706 41.432326840440616" height="41.432326840440616" width="55.2281271789706"><g><svg version="1.0" xmlns="http://www.w3.org/2000/svg" xmlns:xlink="http://www.w3.org/1999/xlink" x="8" y="0" viewBox="0 0 94.68000030517578 100" enable-background="new 0 0 94.68 100" xml:space="preserve" width="39.2281271789706" height="41.432326840440616" class="icon-icon-0" data-fill-palette-color="accent" id="icon-0"><path d="M68.502 0c-3.284 0.262-6.492 0.594-9.654 0.971C38.964 3.335 21.698 7.916 8.656 14.01 5.521 15.475 2.619 17.024 0 18.66v58.244L94.68 100V40.886L68.502 0zM86.021 89.009L8.656 70.126V52.7l77.365 19.222V89.009zM86.021 63.003L8.699 43.78 8.656 26.353l77.365 19.248V63.003z" fill="#ffffff" data-fill-palette-color="accent"></path></svg></g></svg></g><g><rect width="170.14593641051468" height="2.7036251755660157" y="37.728701664874606" x="225.37406358948527" fill="#ffffff" data-fill-palette-color="accent"></rect><rect width="170.14593641051468" height="2.7036251755660157" y="37.728701664874606" x="0" fill="#ffffff" data-fill-palette-color="accent"></rect><rect width="170.14593641051468" height="2.7036251755660157" y="32.32145131374257" x="225.37406358948527" fill="#ffffff" data-fill-palette-color="accent"></rect><rect width="170.14593641051468" height="2.7036251755660157" y="32.32145131374257" x="0" fill="#ffffff" data-fill-palette-color="accent"></rect></g></svg></g><defs></defs></svg><rect width="395.52" height="78.489855662166" fill="none" stroke="none" visibility="hidden"></rect></g></svg></g></svg>