<?xml version="1.0" standalone="no"?>
<!DOCTYPE svg PUBLIC "-//W3C//DTD SVG 20010904//EN"
 "http://www.w3.org/TR/2001/REC-SVG-20010904/DTD/svg10.dtd">
<svg version="1.0" xmlns="http://www.w3.org/2000/svg"
 width="286.000000pt" height="306.000000pt" viewBox="0 0 286.000000 306.000000"
 preserveAspectRatio="xMidYMid meet">

<g transform="translate(0.000000,306.000000) scale(0.100000,-0.100000)"
fill="#000000" stroke="none">
<path d="M1325 2926 c-81 -84 -153 -187 -180 -259 -54 -145 41 -326 200 -377
l60 -19 -105 -1 c-172 -1 -170 3 -170 -348 l0 -269 -207 -6 c-220 -6 -254 -12
-353 -62 -108 -55 -213 -182 -250 -303 -19 -62 -21 -91 -20 -523 l0 -456 -77
-5 c-71 -5 -79 -8 -105 -37 -40 -44 -39 -101 1 -142 l29 -29 1292 0 1292 0 29
29 c40 41 41 98 1 142 -25 28 -35 32 -99 36 l-71 6 -4 451 c-4 416 -6 456 -25
517 -51 169 -181 301 -350 355 -34 11 -109 17 -255 21 l-208 6 0 269 c0 352 3
347 -175 348 l-110 1 55 15 c130 35 218 141 228 276 4 61 2 74 -30 140 -38 79
-135 207 -200 263 -33 27 -50 35 -81 35 -37 0 -46 -6 -112 -74z m152 -223 c73
-96 80 -133 35 -184 -24 -26 -36 -32 -72 -32 -80 0 -125 83 -83 151 29 47 74
102 83 102 5 0 21 -17 37 -37z m63 -848 l0 -205 -100 0 -100 0 0 205 0 205
100 0 100 0 0 -205z m650 -441 c94 -44 180 -161 180 -246 l0 -38 -556 -2 -556
-3 -37 -42 c-66 -76 -117 -76 -183 0 l-36 42 -246 3 -246 3 0 37 c0 52 41 133
91 182 50 49 85 68 142 80 23 4 348 7 722 7 668 -2 681 -2 725 -23z m-1275
-514 c10 -11 47 -34 82 -50 87 -41 168 -42 256 -1 34 15 72 38 84 50 22 21 25
21 533 21 l511 0 -3 -102 -3 -103 -247 -5 -248 -5 -43 -47 c-34 -38 -51 -48
-75 -48 -43 0 -77 17 -93 47 -7 13 -22 30 -34 36 -14 9 -177 13 -575 17 l-555
5 -3 103 -3 102 199 0 c186 0 200 -1 217 -20z m629 -419 c10 -11 43 -32 74
-47 104 -50 238 -34 336 41 33 25 35 25 229 25 l197 0 0 -100 0 -100 -940 0
-940 0 0 100 0 100 513 0 c494 0 515 -1 531 -19z"/>
</g>
</svg>
